<svg width="26" height="26" viewBox="0 0 26 26" fill="none" xmlns="http://www.w3.org/2000/svg">
<path fill-rule="evenodd" clip-rule="evenodd" d="M13 0.661621C9.60526 0.661621 9.17895 0.674779 7.84605 0.736621C6.51711 0.798463 5.60658 1.00899 4.81184 1.3182C3.9777 1.63234 3.22201 2.12446 2.59737 2.76031C1.96198 3.38481 1.4707 4.14059 1.15789 4.97478C0.848684 5.76952 0.636842 6.67741 0.576315 8.00899C0.514473 9.34188 0.5 9.76688 0.5 13.1616C0.5 16.5564 0.513158 16.9827 0.575 18.3156C0.635527 19.6471 0.847368 20.555 1.15658 21.3498C1.46977 22.1841 1.9615 22.9399 2.59737 23.5643C3.22201 24.2001 3.9777 24.6922 4.81184 25.0064C5.60658 25.3143 6.51579 25.5261 7.84605 25.5879C9.17895 25.6471 9.60395 25.6616 13 25.6616C16.3947 25.6616 16.8197 25.6485 18.1526 25.5879C19.4842 25.5261 20.3921 25.3143 21.1868 25.0064C22.021 24.6922 22.7767 24.2001 23.4013 23.5643C24.0371 22.9398 24.5288 22.184 24.8421 21.3498C25.1513 20.555 25.3618 19.6471 25.4237 18.3156C25.4842 16.9827 25.4987 16.5577 25.4987 13.1616C25.4987 9.76688 25.4855 9.34188 25.4237 8.00899C25.3618 6.67741 25.1513 5.76952 24.8421 4.97478C24.5284 4.1404 24.0362 3.38463 23.4 2.76031C22.7756 2.12509 22.0204 1.63344 21.1868 1.31952C20.3921 1.01031 19.4842 0.799778 18.1526 0.737936C16.8197 0.676094 16.3947 0.661621 13 0.661621ZM13 2.74452C16.3921 2.74452 16.7934 2.75767 18.1342 2.81952C19.3724 2.8761 20.0447 3.08267 20.4934 3.25767C21.0855 3.48794 21.5092 3.76294 21.9539 4.20767C22.3987 4.65241 22.6737 5.0761 22.9039 5.6682C23.0776 6.11557 23.2855 6.78925 23.3421 8.02873C23.4026 9.3682 23.4171 9.76952 23.4171 13.1616C23.4171 16.555 23.4039 16.9564 23.3421 18.2958C23.2855 19.5353 23.0789 20.2077 22.9039 20.6564C22.6737 21.2485 22.3987 21.6708 21.9539 22.1169C21.5442 22.5387 21.0451 22.8634 20.4934 23.0669C20.0461 23.2406 19.3724 23.4485 18.1342 23.5037C16.7934 23.5643 16.3934 23.5787 13 23.5787C9.60658 23.5787 9.20526 23.5656 7.86579 23.5037C6.62763 23.4485 5.95395 23.2406 5.50526 23.0669C4.95346 22.8635 4.45435 22.5389 4.04474 22.1169C3.62321 21.7069 3.29863 21.2079 3.09474 20.6564C2.92105 20.209 2.71316 19.5353 2.6579 18.2958C2.59737 16.9564 2.58289 16.555 2.58289 13.1616C2.58289 9.76952 2.59605 9.3682 2.6579 8.02873C2.71316 6.78925 2.92105 6.11688 3.09474 5.6682C3.325 5.0761 3.60132 4.65241 4.04605 4.20767C4.45566 3.78569 4.95477 3.46104 5.50658 3.25767C5.95395 3.08399 6.62763 2.8761 7.86579 2.81952C9.20526 2.75899 9.60658 2.74452 13 2.74452Z" fill="#F5F5F5"/>
<path fill-rule="evenodd" clip-rule="evenodd" d="M13 17.3288C11.895 17.3288 10.8352 16.8898 10.0539 16.1085C9.27252 15.3271 8.83355 14.2673 8.83355 13.1623C8.83355 12.0573 9.27252 10.9976 10.0539 10.2162C10.8352 9.43485 11.895 8.99589 13 8.99589C14.105 8.99589 15.1648 9.43485 15.9461 10.2162C16.7275 10.9976 17.1664 12.0573 17.1664 13.1623C17.1664 14.2673 16.7275 15.3271 15.9461 16.1085C15.1648 16.8898 14.105 17.3288 13 17.3288ZM13 6.91168C11.3424 6.91168 9.75269 7.57016 8.58058 8.74226C7.40848 9.91436 6.75 11.5041 6.75 13.1617C6.75 14.8193 7.40848 16.409 8.58058 17.5811C9.75269 18.7532 11.3424 19.4117 13 19.4117C14.6576 19.4117 16.2473 18.7532 17.4194 17.5811C18.5915 16.409 19.25 14.8193 19.25 13.1617C19.25 11.5041 18.5915 9.91436 17.4194 8.74226C16.2473 7.57016 14.6576 6.91168 13 6.91168M17.1671 6.91168C17.1673 6.35891 17.387 5.82885 17.778 5.43811C18.169 5.04737 18.6992 4.82795 19.252 4.82813C19.8047 4.8283 20.3348 5.04805 20.7255 5.43904C21.1163 5.83003 21.3357 6.36023 21.3355 6.91299C21.3354 7.1867 21.2814 7.4577 21.1766 7.71054C21.0718 7.96337 20.9182 8.19308 20.7246 8.38656C20.531 8.58004 20.3012 8.73348 20.0483 8.83815C19.7954 8.94281 19.5244 8.99663 19.2507 8.99655C18.977 8.99646 18.7059 8.94246 18.4531 8.83764C18.2003 8.73282 17.9706 8.57923 17.7771 8.38563C17.5836 8.19203 17.4302 7.96222 17.3255 7.70932C17.2208 7.45642 17.167 7.18538 17.1671 6.91168" fill="#F5F5F5"/>
</svg>
