<svg width="512" height="105" viewBox="0 0 512 105" fill="none" xmlns="http://www.w3.org/2000/svg">
<g clip-path="url(#clip0_310_685)">
<path fill-rule="evenodd" clip-rule="evenodd" d="M385.36 74.4288V100.594C381.859 98.4365 378.78 99.2766 375.494 100.702C371.266 102.53 367.213 101.495 363.752 98.5373C357.266 93.0059 357.185 82.3126 363.55 76.6871C367.045 73.6021 371.138 72.6611 375.467 74.3549C378.76 75.6453 381.879 76.5661 385.36 74.4288ZM378.666 87.4677C378.767 87.4206 378.874 87.3669 378.975 87.3131C378.323 85.5992 377.927 83.7308 376.959 82.2185C374.573 78.495 370.009 78.569 367.496 82.2118C366.151 84.1677 365.768 86.3722 365.977 88.6977C366.306 92.3405 368.86 95.3314 371.878 95.5935C374.808 95.8489 377.517 93.3957 378.377 89.652C378.545 88.9329 378.572 88.1936 378.666 87.4677Z" fill="white"/>
<path fill-rule="evenodd" clip-rule="evenodd" d="M238.215 73.6356C246.072 73.602 252.215 79.6711 252.229 87.4877C252.249 95.2103 245.978 101.535 238.296 101.555C230.621 101.568 224.242 95.2372 224.229 87.5818C224.215 79.8257 230.392 73.6625 238.215 73.6356ZM245.165 87.5684C245.185 83.1123 242.295 79.6173 238.511 79.5098C234.868 79.409 231.958 82.2453 231.36 86.493C230.795 90.445 233.329 94.5583 236.844 95.3985C241.213 96.4335 245.145 92.7302 245.165 87.5684Z" fill="white"/>
<path fill-rule="evenodd" clip-rule="evenodd" d="M299.472 73.6355C307.275 73.649 313.465 79.8256 313.445 87.5818C313.425 95.2371 307.04 101.582 299.371 101.555C291.689 101.528 285.418 95.2035 285.438 87.4877C285.458 79.6912 291.622 73.6086 299.472 73.6355ZM306.415 87.5146C306.408 83.2534 303.484 79.6912 299.828 79.5165C296.286 79.3417 293.194 82.1041 292.623 85.9486C291.978 90.3509 294.276 94.4776 297.879 95.3783C302.295 96.4738 306.415 92.6764 306.415 87.5146Z" fill="white"/>
<path fill-rule="evenodd" clip-rule="evenodd" d="M342.533 100.856C342.533 95.7077 342.567 90.9088 342.527 86.1099C342.5 83.3677 341.505 81.096 338.803 80.0139C334.865 78.4345 330.415 81.4791 330.335 85.8209C330.261 90.0283 330.321 94.2358 330.308 98.4499C330.308 99.169 330.254 99.8815 330.214 100.735H323.788V74.543C327.223 76.5727 330.382 75.6385 333.668 74.3615C340.92 71.5588 348.555 76.3106 349.093 84.0533C349.436 89.1143 349.281 94.2021 349.234 99.2833C349.234 99.8075 348.481 100.735 348.011 100.782C346.311 100.97 344.57 100.856 342.533 100.856Z" fill="white"/>
<path fill-rule="evenodd" clip-rule="evenodd" d="M213.784 92.8109C215.108 93.8257 216.359 94.7869 217.595 95.7345C215.203 100.076 209.308 102.375 203.972 101.145C198.534 99.8949 194.031 94.5113 193.729 88.9261C193.359 81.9899 196.874 76.3375 202.836 74.2674C208.233 72.3922 214.248 74.3211 217.75 79.2275C216.473 80.2155 215.182 81.2102 213.912 82.1982C210.155 78.8444 205.652 78.253 202.56 82.0101C199.811 85.3572 200.221 91.0432 203.333 93.8929C206.163 96.4671 210.263 96.1243 213.784 92.8109Z" fill="white"/>
<path fill-rule="evenodd" clip-rule="evenodd" d="M262.096 74.4421C265.597 76.3576 268.487 75.8267 271.539 74.4892C273.327 73.7095 275.471 73.7566 277.635 73.3936V81.6942C276.452 81.3783 275.235 80.8473 273.992 80.7599C270.894 80.5516 268.951 82.4537 268.918 85.5857C268.877 89.8603 268.904 94.1282 268.904 98.4028V100.849C266.874 100.849 265.013 100.99 263.198 100.748C262.754 100.695 262.149 99.4042 262.136 98.6784C262.055 91.8027 262.089 84.9337 262.089 78.0513V74.4421H262.096Z" fill="white"/>
<path fill-rule="evenodd" clip-rule="evenodd" d="M181.187 20.68C175.622 20.68 172.719 24.6656 172.719 24.6656L171.959 22.5821C171.704 21.8831 171.267 21.3185 170.628 21.3185H167.658C167.026 21.3185 166.455 21.8898 166.455 22.5216V25.3108V50.6762V59.1045C166.455 59.8975 166.455 60.6839 166.455 61.477C166.455 61.6181 166.468 61.7727 166.502 61.9139C166.717 62.7271 167.53 63.2917 168.363 63.2178C169.365 63.1237 170.037 62.465 170.077 61.5173C170.091 61.1746 170.07 60.8318 170.091 60.4957C170.138 59.7833 170.931 59.3464 171.616 59.6421C172.087 59.8438 172.268 60.2202 172.268 60.6839C172.268 62.2432 172.275 63.8025 172.268 65.3618C172.268 65.9801 172.504 66.4909 173.048 66.8404C173.263 66.9748 173.532 67.0555 173.774 67.1563H174.399C175.548 66.827 175.958 66.0742 175.904 64.9988C175.864 64.2058 175.891 50.4074 175.891 50.4074L175.871 50.3469V46.0319C176.63 46.4755 178.969 47.235 181.12 47.235C187.888 47.235 193.702 42.873 193.702 33.9609C193.702 26.6819 188.332 20.68 181.187 20.68ZM179.924 39.0756C177.013 39.0756 174.863 36.8644 174.863 34.0214C174.863 31.1111 177.013 28.8394 179.924 28.8394C182.834 28.8394 185.045 31.1178 185.045 34.0214C185.045 36.8644 182.827 39.0756 179.924 39.0756Z" fill="white"/>
<path d="M205.934 12.608C204.986 13.5423 203.844 14.006 202.506 14.006C201.169 14.006 200.04 13.5423 199.112 12.608C198.185 11.6805 197.714 10.5447 197.714 9.20718C197.714 7.8764 198.178 6.73381 199.112 5.77942C200.04 4.83175 201.175 4.35455 202.506 4.35455C203.844 4.35455 204.986 4.83175 205.934 5.77942C206.882 6.73381 207.359 7.86968 207.359 9.20718C207.366 10.5447 206.888 11.6805 205.934 12.608ZM198.084 44.4593V22.4948C198.084 22.1722 198.198 21.8966 198.42 21.6748C198.642 21.453 198.917 21.3387 199.24 21.3387H205.914C206.236 21.3387 206.512 21.453 206.734 21.6748C206.956 21.8966 207.07 22.1722 207.07 22.4948V44.4593C207.07 44.7416 206.949 45.0037 206.707 45.2457C206.465 45.4876 206.203 45.6086 205.921 45.6086H199.247C198.964 45.6086 198.702 45.4876 198.46 45.2457C198.205 45.0037 198.084 44.7416 198.084 44.4593Z" fill="white"/>
<path d="M213.61 44.4594V22.4949C213.61 22.1723 213.724 21.8967 213.946 21.6749C214.168 21.4531 214.443 21.3389 214.766 21.3389H217.615C218.14 21.3389 218.503 21.5808 218.704 22.0647L219.672 24.491C221.977 21.9841 224.827 20.7272 228.228 20.7272C231.831 20.7272 234.647 21.9303 236.69 24.3365C238.733 26.7426 239.755 29.7671 239.755 33.4032V44.446C239.755 44.7282 239.64 44.9904 239.425 45.2323C239.204 45.4743 238.928 45.5953 238.605 45.5953H232.113C231.79 45.5953 231.515 45.481 231.293 45.2592C231.071 45.0374 230.957 44.7618 230.957 44.4392V33.094C230.957 31.8036 230.594 30.7215 229.868 29.8478C229.142 28.974 228.127 28.5439 226.837 28.5439C225.58 28.5439 224.498 28.9471 223.59 29.7536C222.683 30.5669 222.226 31.5751 222.226 32.7849V44.4325C222.226 45.1987 221.863 45.5885 221.137 45.5885H214.766C214.483 45.5885 214.221 45.4676 213.979 45.2256C213.731 45.0038 213.61 44.7417 213.61 44.4594Z" fill="white"/>
<path d="M246.435 37.785V29.0476H244.856C244.574 29.0476 244.318 28.9334 244.096 28.7116C243.875 28.4898 243.76 28.2142 243.76 27.8916V22.4878C243.76 22.1652 243.861 21.8897 244.063 21.6679C244.264 21.4461 244.527 21.3318 244.849 21.3318H246.429V14.6107C246.429 14.3284 246.55 14.0663 246.792 13.8244C247.033 13.5824 247.296 13.4614 247.578 13.4614H254.07C254.353 13.4614 254.608 13.5757 254.83 13.7975C255.052 14.0193 255.159 14.2948 255.159 14.6175V21.352H259.649C260.415 21.352 260.805 21.7351 260.805 22.5013V27.905C260.805 28.2276 260.691 28.5032 260.469 28.725C260.247 28.9468 259.972 29.0611 259.649 29.0611H255.159V36.6425C255.159 37.6103 255.704 38.1009 256.799 38.1009C256.961 38.1009 257.747 37.9598 259.165 37.6775C259.891 37.5565 260.334 37.8187 260.496 38.4639L261.833 43.498C261.995 44.2238 261.732 44.6943 261.047 44.8959C258.177 45.7831 255.731 46.2335 253.708 46.2335C251.402 46.2335 249.614 45.5143 248.337 44.0827C247.074 42.6309 246.435 40.534 246.435 37.785Z" fill="white"/>
<path d="M265.785 33.4771V22.4948C265.785 22.1722 265.893 21.8967 266.121 21.6749C266.343 21.4531 266.619 21.3388 266.941 21.3388H273.434C273.756 21.3388 274.032 21.4531 274.254 21.6749C274.476 21.8967 274.583 22.1722 274.583 22.4948V33.719C274.583 35.0162 274.926 36.1185 275.618 37.0258C276.304 37.9332 277.258 38.3902 278.468 38.3902C279.597 38.3902 280.491 37.9533 281.136 37.0863C281.781 36.2193 282.104 35.2178 282.104 34.082V22.4948C282.104 21.7286 282.527 21.3455 283.381 21.3455H289.571C289.894 21.3455 290.169 21.4598 290.391 21.6816C290.613 21.9034 290.72 22.1789 290.72 22.5016V44.4593C290.72 44.7416 290.599 45.0038 290.357 45.2457C290.115 45.4877 289.853 45.6086 289.571 45.6086H286.721C286.197 45.6086 285.814 45.3264 285.565 44.7618L284.658 42.517C283.811 43.3638 283.179 43.9553 282.776 44.2779C282.373 44.6005 281.573 45.0038 280.377 45.4877C279.187 45.9716 277.876 46.2136 276.465 46.2136C273.03 46.2136 270.389 45.0105 268.548 42.6043C266.706 40.2049 265.785 37.1602 265.785 33.4771Z" fill="white"/>
<path d="M297.274 44.4594V22.4949C297.274 22.1723 297.381 21.8967 297.61 21.6749C297.831 21.4531 298.107 21.3389 298.43 21.3389H301.279C301.763 21.3389 302.126 21.5808 302.368 22.0647L303.457 24.733C305.319 22.0647 307.523 20.7272 310.07 20.7272C311.166 20.7272 312.134 20.8482 312.981 21.0902C313.828 21.3321 314.439 21.6547 314.802 22.058C315.165 22.4613 315.205 22.8847 314.923 23.335L311.952 28.1876C311.63 28.7522 311.186 28.9337 310.615 28.7321C310.131 28.5304 309.647 28.4296 309.156 28.4296C308.229 28.4296 307.456 28.7522 306.851 29.3974C306.246 30.0427 305.944 30.8761 305.944 31.8842V44.4392C305.944 45.2054 305.5 45.5953 304.606 45.5953H298.416C298.134 45.5953 297.872 45.4743 297.63 45.2323C297.395 45.0038 297.274 44.7417 297.274 44.4594Z" fill="white"/>
<path d="M316.14 33.4771C316.14 29.9956 317.35 27.0047 319.783 24.4978C322.209 21.9908 325.18 20.7339 328.701 20.7339C331.854 20.7339 334.569 21.816 336.834 23.9802C339.099 26.1444 340.228 28.8665 340.228 32.1396C340.228 32.6639 340.188 33.215 340.107 33.7796C340.026 34.4651 339.643 34.8146 338.951 34.8146H324.393C324.514 35.8228 324.971 36.7436 325.758 37.577C326.544 38.4037 327.646 38.8204 329.064 38.8204C330.604 38.8204 332.015 38.3365 333.312 37.3619C333.917 36.878 334.421 36.878 334.831 37.3619L337.862 41.0048C338.346 41.65 338.326 42.2414 337.802 42.7657C335.496 45.071 332.506 46.2203 328.822 46.2203C325.26 46.2203 322.256 44.9769 319.809 42.4901C317.363 40.0033 316.14 36.999 316.14 33.4771ZM325.18 30.083H331.672C331.632 29.3168 331.289 28.6514 330.644 28.0801C329.999 27.5155 329.266 27.2332 328.46 27.2332C327.653 27.2332 326.934 27.5088 326.309 28.0532C325.67 28.5976 325.301 29.2765 325.18 30.083Z" fill="white"/>
<path d="M344.59 44.4594V22.4949C344.59 22.1723 344.704 21.8967 344.926 21.6749C345.148 21.4531 345.424 21.3389 345.746 21.3389H348.596C349.08 21.3389 349.443 21.5808 349.685 22.0647L350.774 24.733C352.635 22.0647 354.84 20.7272 357.387 20.7272C358.476 20.7272 359.45 20.8482 360.297 21.0902C361.144 21.3321 361.756 21.6547 362.119 22.058C362.482 22.4613 362.522 22.8847 362.24 23.335L359.269 28.1876C358.946 28.7522 358.503 28.9337 357.931 28.7321C357.448 28.5304 356.964 28.4296 356.473 28.4296C355.546 28.4296 354.773 28.7522 354.168 29.3974C353.563 30.0427 353.26 30.8761 353.26 31.8842V44.4392C353.26 45.2054 352.817 45.5953 351.923 45.5953H345.733C345.45 45.5953 345.188 45.4743 344.946 45.2323C344.711 45.0038 344.59 44.7417 344.59 44.4594Z" fill="white"/>
<path d="M366.252 44.0023C364.673 42.5237 363.886 40.5947 363.886 38.2087C363.886 35.8227 364.693 33.8736 366.313 32.3547C367.932 30.8357 370.097 30.0762 372.805 30.0762C373.612 30.0762 374.405 30.1569 375.171 30.3182C375.937 30.4795 376.522 30.6408 376.932 30.8021L377.476 31.0441C377.476 29.7469 377.275 28.8261 376.871 28.2817C376.468 27.7373 375.574 27.4617 374.203 27.4617C372.14 27.4617 370.117 27.7642 368.134 28.369C367.327 28.6513 366.837 28.2279 366.675 27.092L366.131 23.2677C365.97 22.4209 366.272 21.8698 367.045 21.6278C367.448 21.5068 368.537 21.3254 370.318 21.0834C372.099 20.8414 373.699 20.7205 375.11 20.7205C378.834 20.7205 381.469 21.5337 383.028 23.1468C384.587 24.7666 385.36 27.3945 385.36 31.0306V44.4392C385.36 44.7215 385.253 44.9836 385.031 45.2255C384.809 45.4675 384.533 45.5885 384.211 45.5885H381.536C381.052 45.5885 380.689 45.3264 380.447 44.8021L379.6 43.1622C377.375 45.1852 374.929 46.1934 372.261 46.1934C369.828 46.2203 367.825 45.4809 366.252 44.0023ZM371.77 37.6038C371.77 38.3297 372.025 38.9615 372.53 39.4857C373.034 40.01 373.652 40.2721 374.378 40.2721C375.104 40.2721 375.736 40.01 376.26 39.4857C376.784 38.9615 377.046 38.3297 377.046 37.6038C377.006 36.9183 376.73 36.3201 376.226 35.816C375.722 35.3119 375.104 35.0565 374.378 35.0565C373.652 35.0565 373.034 35.3119 372.53 35.816C372.025 36.3201 371.77 36.9183 371.77 37.6038Z" fill="white"/>
<path d="M2.67499 37.785V29.0476H1.09554C0.813255 29.0476 0.55785 28.9334 0.336054 28.7116C0.114258 28.4898 0 28.2142 0 27.8916V22.4878C0 22.1652 0.100814 21.8897 0.302447 21.6679C0.504079 21.4461 0.7662 21.3318 1.08881 21.3318H2.66827V14.6107C2.66827 14.3284 2.78925 14.0663 3.03121 13.8244C3.27316 13.5824 3.53529 13.4614 3.81757 13.4614H10.3101C10.5924 13.4614 10.8411 13.5757 11.0696 13.7975C11.2914 14.0193 11.4057 14.2948 11.4057 14.6175V21.352H15.8954C16.6616 21.352 17.0447 21.7351 17.0447 22.5013V27.905C17.0447 28.2276 16.9304 28.5032 16.7086 28.725C16.4868 28.9468 16.2113 29.0611 15.8886 29.0611H11.399V36.6425C11.399 37.6103 11.9434 38.1009 13.0389 38.1009C13.2002 38.1009 13.9866 37.9598 15.4047 37.6775C16.1306 37.5565 16.5742 37.8187 16.7422 38.4639L18.0797 43.498C18.241 44.2238 17.9789 44.6943 17.2933 44.8959C14.4234 45.7831 11.977 46.2335 9.95392 46.2335C7.64859 46.2335 5.86078 45.5143 4.58377 44.0827C3.31349 42.6309 2.67499 40.534 2.67499 37.785Z" fill="white"/>
<path d="M30.4264 12.608C29.4787 13.5423 28.3361 14.006 26.9986 14.006C25.6611 14.006 24.532 13.5423 23.6045 12.608C22.677 11.6805 22.2065 10.5447 22.2065 9.20718C22.2065 7.8764 22.6702 6.73381 23.6045 5.77942C24.532 4.83175 25.6678 4.35455 26.9986 4.35455C28.3361 4.35455 29.4787 4.83175 30.4264 5.77942C31.3741 6.73381 31.8512 7.86968 31.8512 9.20718C31.858 10.5447 31.3808 11.6805 30.4264 12.608ZM22.5694 44.4593V22.4948C22.5694 22.1722 22.6837 21.8966 22.9055 21.6748C23.1273 21.453 23.4028 21.3387 23.7255 21.3387H30.3995C30.7221 21.3387 30.9977 21.453 31.2195 21.6748C31.4413 21.8966 31.5488 22.1722 31.5488 22.4948V44.4593C31.5488 44.7416 31.4278 45.0037 31.1859 45.2457C30.9439 45.4876 30.6818 45.6086 30.3995 45.6086H23.7255C23.4432 45.6086 23.181 45.4876 22.9391 45.2457C22.6971 45.0037 22.5694 44.7416 22.5694 44.4593Z" fill="white"/>
<path d="M36.2808 33.4772C36.2808 29.9957 37.4906 27.0048 39.9236 24.4978C42.3499 21.9909 45.3206 20.734 48.8425 20.734C52.0014 20.734 54.71 21.8161 56.975 23.9803C59.24 26.1445 60.3691 28.8665 60.3691 32.1397C60.3691 32.6639 60.3288 33.2151 60.2482 33.7796C60.1675 34.4652 59.7844 34.8147 59.0921 34.8147H44.5343C44.6552 35.8229 45.1123 36.7436 45.8986 37.5771C46.685 38.4038 47.7873 38.8205 49.2054 38.8205C50.7445 38.8205 52.156 38.3365 53.4531 37.362C54.058 36.8781 54.5621 36.8781 54.9721 37.362L58.0033 41.0048C58.4872 41.65 58.4671 42.2415 57.9428 42.7657C55.6375 45.0711 52.6466 46.2204 48.9634 46.2204C45.4013 46.2204 42.4037 44.977 39.9572 42.4902C37.504 40.0034 36.2808 36.999 36.2808 33.4772ZM45.3206 30.083H51.8132C51.7729 29.3168 51.4301 28.6515 50.7849 28.0802C50.1397 27.5156 49.4071 27.2333 48.6005 27.2333C47.7873 27.2333 47.0748 27.5089 46.4498 28.0533C45.818 28.5977 45.4416 29.2765 45.3206 30.083Z" fill="white"/>
<path d="M64.7379 44.4594V22.4949C64.7379 22.1723 64.8522 21.8967 65.074 21.6749C65.2958 21.4531 65.5713 21.3389 65.8939 21.3389H68.7437C69.2679 21.3389 69.6309 21.5808 69.8325 22.0647L70.8003 24.491C73.1057 21.9841 75.9554 20.7272 79.3563 20.7272C82.9588 20.7272 85.7749 21.9303 87.8181 24.3365C89.8613 26.7426 90.8829 29.7671 90.8829 33.4032V44.446C90.8829 44.7282 90.7687 44.9904 90.5469 45.2323C90.3251 45.4743 90.0495 45.5953 89.7269 45.5953H83.2344C82.9117 45.5953 82.6362 45.481 82.4144 45.2592C82.1926 45.0374 82.0783 44.7618 82.0783 44.4392V33.094C82.0783 31.8036 81.7154 30.7215 80.9895 29.8478C80.2636 28.974 79.2487 28.5439 77.9583 28.5439C76.7015 28.5439 75.6194 28.9471 74.712 29.7536C73.8047 30.5669 73.3476 31.5751 73.3476 32.7849V44.4325C73.3476 45.1987 72.9847 45.5885 72.2588 45.5885H65.8872C65.6049 45.5885 65.3428 45.4676 65.1009 45.2256C64.8589 45.0038 64.7379 44.7417 64.7379 44.4594Z" fill="white"/>
<path d="M95.0091 33.477C95.0091 29.3906 96.1584 26.2451 98.4704 24.0406C100.776 21.8361 103.646 20.7338 107.087 20.7338C109.11 20.7338 110.79 21.1169 112.121 21.8898V4.29402C112.121 4.01174 112.229 3.74962 112.457 3.50766C112.679 3.2657 112.954 3.14471 113.277 3.14471H120.012C120.294 3.14471 120.556 3.2657 120.798 3.50766C121.04 3.74962 121.161 4.01174 121.161 4.29402V44.4592C121.161 44.7415 121.04 45.0037 120.798 45.2456C120.556 45.4876 120.294 45.6085 120.012 45.6085H117.162C116.597 45.6085 116.167 45.2053 115.885 44.392L115.159 42.3892C114.957 42.6714 114.655 43.0276 114.252 43.4511C113.848 43.8745 112.941 44.4391 111.523 45.1515C110.105 45.8572 108.613 46.2135 107.033 46.2135C103.639 46.2135 100.783 44.97 98.4772 42.4832C96.1584 40.0032 95.0091 36.9988 95.0091 33.477ZM103.323 33.4165C103.323 34.8346 103.8 36.0176 104.748 36.9652C105.696 37.9129 106.858 38.3901 108.236 38.3901C109.614 38.3901 110.763 37.9129 111.698 36.9652C112.625 36.0176 113.096 34.8346 113.096 33.4165C113.096 32.0454 112.632 30.8894 111.698 29.9619C110.763 29.0344 109.614 28.5639 108.236 28.5639C106.858 28.5639 105.696 29.0276 104.748 29.9619C103.794 30.8894 103.323 32.0454 103.323 33.4165Z" fill="white"/>
<path d="M128.44 44.0024C126.861 42.5237 126.074 40.5948 126.074 38.2088C126.074 35.8228 126.881 33.8737 128.501 32.3547C130.12 30.8358 132.285 30.0763 134.993 30.0763C135.8 30.0763 136.593 30.1569 137.359 30.3182C138.125 30.4795 138.717 30.6408 139.12 30.8022L139.664 31.0441C139.664 29.7469 139.463 28.8262 139.06 28.2817C138.656 27.7373 137.762 27.4618 136.391 27.4618C134.328 27.4618 132.305 27.7642 130.322 28.3691C129.516 28.6514 129.025 28.228 128.864 27.0921L128.319 23.2678C128.158 22.421 128.46 21.8698 129.233 21.6279C129.637 21.5069 130.732 21.3254 132.506 21.0835C134.288 20.8415 135.88 20.7205 137.299 20.7205C141.022 20.7205 143.657 21.5338 145.216 23.1468C146.775 24.7666 147.555 27.3946 147.555 31.0307V44.4392C147.555 44.7215 147.441 44.9837 147.219 45.2256C146.997 45.4676 146.722 45.5885 146.399 45.5885H143.731C143.247 45.5885 142.884 45.3264 142.642 44.8022L141.795 43.1622C139.57 45.1853 137.124 46.1934 134.456 46.1934C132.016 46.2203 130.013 45.481 128.44 44.0024ZM133.958 37.6039C133.958 38.3298 134.214 38.9616 134.718 39.4858C135.222 40.01 135.84 40.2722 136.566 40.2722C137.292 40.2722 137.917 40.01 138.448 39.4858C138.972 38.9616 139.234 38.3298 139.234 37.6039C139.194 36.9183 138.918 36.3202 138.414 35.8161C137.91 35.312 137.292 35.0566 136.566 35.0566C135.84 35.0566 135.222 35.312 134.718 35.8161C134.207 36.3202 133.958 36.9183 133.958 37.6039Z" fill="white"/>
<path d="M466.007 0H423.341V52.3774H466.007V0Z" fill="#ECB334"/>
<path d="M508.672 0H466.007V52.3774H508.672V0Z" fill="#75B9F5"/>
<path d="M487.628 26.2124H466.114V52.4515H487.628V26.2124Z" fill="#8DB730"/>
<path d="M466.007 52.3774H423.341V104.755H466.007V52.3774Z" fill="#0096D6"/>
<path d="M466.121 52.4246H444.607V78.6637H466.121V52.4246Z" fill="#DB6425"/>
<path d="M508.672 52.3236H466.007V104.701H508.672V52.3236Z" fill="#002B5C"/>
<path fill-rule="evenodd" clip-rule="evenodd" d="M467.102 26.0912C461.598 26.0912 458.714 30.0365 458.714 30.0365L457.962 27.9732C457.713 27.2876 457.276 26.723 456.644 26.723H453.7C453.075 26.723 452.511 27.2876 452.511 27.9127V30.675V55.785V64.1326C452.511 64.9123 452.511 65.6986 452.511 66.4783C452.511 66.6194 452.524 66.7673 452.558 66.9084C452.773 67.715 453.579 68.2728 454.399 68.1989C455.387 68.1048 456.053 67.4528 456.1 66.5186C456.113 66.1825 456.093 65.8397 456.113 65.5037C456.16 64.798 456.94 64.3611 457.625 64.6569C458.089 64.8585 458.271 65.2282 458.271 65.6919C458.271 67.2378 458.277 68.7836 458.264 70.3227C458.264 70.9343 458.499 71.4384 459.037 71.7879C459.252 71.9223 459.514 71.9963 459.756 72.0971H460.374C461.51 71.7745 461.92 71.0217 461.866 69.9598C461.826 69.1734 461.853 55.5162 461.853 55.5162L461.833 55.4557V51.1811C462.586 51.6179 464.898 52.3707 467.028 52.3707C473.722 52.3707 479.482 48.049 479.482 39.231C479.496 32.0327 474.173 26.0912 467.102 26.0912ZM465.852 44.2987C462.975 44.2987 460.845 42.1076 460.845 39.2915C460.845 36.4148 462.975 34.1566 465.852 34.1566C468.729 34.1566 470.92 36.4081 470.92 39.2915C470.92 42.1076 468.729 44.2987 465.852 44.2987Z" fill="white"/>
</g>
<defs>
<clipPath id="clip0_310_685">
<rect width="511.018" height="104.755" fill="white"/>
</clipPath>
</defs>
</svg>
