<svg width="99" height="99" viewBox="0 0 99 99" fill="none" xmlns="http://www.w3.org/2000/svg">
<path d="M99 0H0.428955V98.571H99V0Z" fill="white"/>
<path d="M17.4959 71.4021C17.9212 71.3937 18.3431 71.4789 18.7318 71.6517C19.1205 71.8245 19.4663 72.0807 19.7449 72.4021L19.8599 72.5561L21.6399 71.2501L21.5149 71.0861C20.8847 70.2804 20.0392 69.6697 19.0762 69.3247C18.1132 68.9796 17.0722 68.9144 16.0737 69.1366C15.0752 69.3587 14.1601 69.8591 13.4342 70.5799C12.7084 71.3006 12.2015 72.2123 11.9724 73.2092C11.7432 74.2061 11.8011 75.2475 12.1393 76.2129C12.4776 77.1783 13.0823 78.0281 13.8836 78.664C14.6849 79.2998 15.6498 79.6957 16.6668 79.8059C17.6838 79.916 18.7111 79.7358 19.6299 79.2861C20.3593 78.9282 20.9972 78.4083 21.4949 77.7661L21.6099 77.6121L19.8459 76.2851L19.7309 76.4721C19.4618 76.7978 19.1195 77.0554 18.732 77.2238C18.3445 77.3921 17.9227 77.4666 17.5009 77.4411C17.1283 77.4195 16.7637 77.3238 16.4285 77.1596C16.0933 76.9954 15.7942 76.7659 15.5487 76.4847C15.3033 76.2035 15.1164 75.8761 14.999 75.5218C14.8816 75.1675 14.836 74.7933 14.8649 74.4211C14.8377 74.0499 14.8844 73.677 15.0025 73.324C15.1206 72.971 15.3077 72.645 15.5528 72.365C15.798 72.0849 16.0964 71.8564 16.4306 71.6926C16.7649 71.5289 17.1284 71.4332 17.4999 71.4111" fill="#0069B4"/>
<path d="M29.559 69.022C28.8342 68.9979 28.1119 69.1198 27.4352 69.3805C26.7585 69.6412 26.1411 70.0354 25.6198 70.5396C25.0985 71.0438 24.684 71.6477 24.4009 72.3153C24.1178 72.983 23.9719 73.7008 23.9719 74.426C23.9719 75.1513 24.1178 75.8691 24.4009 76.5367C24.684 77.2044 25.0985 77.8083 25.6198 78.3125C26.1411 78.8167 26.7585 79.2109 27.4352 79.4716C28.1119 79.7323 28.8342 79.8542 29.559 79.83C30.2838 79.8542 31.0061 79.7323 31.6828 79.4716C32.3596 79.2109 32.9769 78.8167 33.4982 78.3125C34.0195 77.8083 34.434 77.2044 34.7171 76.5367C35.0002 75.8691 35.1461 75.1513 35.1461 74.426C35.1461 73.7008 35.0002 72.983 34.7171 72.3153C34.434 71.6477 34.0195 71.0438 33.4982 70.5396C32.9769 70.0354 32.3596 69.6412 31.6828 69.3805C31.0061 69.1198 30.2838 68.9979 29.559 69.022ZM29.559 77.433C28.8246 77.3411 28.149 76.9842 27.6592 76.4293C27.1694 75.8744 26.8991 75.1597 26.8991 74.4195C26.8991 73.6794 27.1694 72.9647 27.6592 72.4098C28.149 71.8549 28.8246 71.4979 29.559 71.406C30.2957 71.4942 30.9746 71.8494 31.4671 72.4044C31.9595 72.9593 32.2315 73.6756 32.2315 74.4175C32.2315 75.1595 31.9595 75.8758 31.4671 76.4307C30.9746 76.9857 30.2957 77.3409 29.559 77.429" fill="#0069B4"/>
<path d="M53.608 69.022C52.5464 69.056 51.5182 69.4019 50.6519 70.0167C49.7857 70.6314 49.1196 71.4876 48.737 72.4785C48.3544 73.4694 48.2721 74.5511 48.5004 75.5885C48.7287 76.6259 49.2576 77.573 50.0209 78.3117C50.7842 79.0504 51.7482 79.5479 52.7925 79.7421C53.8368 79.9363 54.9152 79.8186 55.893 79.4037C56.8708 78.9888 57.7048 78.2951 58.2908 77.4091C58.8768 76.5232 59.1889 75.4842 59.188 74.422C59.1604 72.9672 58.5579 71.5825 57.5123 70.5706C56.4667 69.5587 55.063 69.0019 53.608 69.022ZM53.608 77.433C52.8722 77.3429 52.1948 76.9867 51.7035 76.4316C51.2122 75.8765 50.941 75.1608 50.941 74.4195C50.941 73.6782 51.2122 72.9625 51.7035 72.4074C52.1948 71.8523 52.8722 71.4961 53.608 71.406C54.3438 71.4961 55.0213 71.8523 55.5126 72.4074C56.0039 72.9625 56.2751 73.6782 56.2751 74.4195C56.2751 75.1608 56.0039 75.8765 55.5126 76.4316C55.0213 76.9867 54.3438 77.3429 53.608 77.433Z" fill="#0069B4"/>
<path d="M67.46 69.1693C67.413 69.1833 67.62 69.1323 67.62 69.1323C67.9307 69.0643 68.2471 69.0258 68.565 69.0173C68.7232 69.0093 68.8818 69.0146 69.039 69.0333C69.6445 69.0766 70.2355 69.2391 70.778 69.5114C71.3205 69.7837 71.8039 70.1605 72.2004 70.6202C72.5969 71.0799 72.8987 71.6133 73.0884 72.19C73.2781 72.7666 73.3521 73.375 73.306 73.9803V79.6063H70.499V74.0363C70.5404 73.7182 70.514 73.395 70.4215 73.0878C70.3291 72.7806 70.1727 72.4965 69.9627 72.254C69.7527 72.0116 69.4937 71.8164 69.2028 71.6811C68.912 71.5458 68.5958 71.4737 68.275 71.4693C67.674 71.4589 67.0909 71.6744 66.6411 72.0733C66.1913 72.4721 65.9076 73.0253 65.846 73.6233V79.6133H63.03V69.2283L63.402 69.4873C63.8704 69.7512 64.3984 69.8913 64.936 69.8943C65.4049 69.8898 65.868 69.7912 66.298 69.6043C66.298 69.6043 67.148 69.2553 67.456 69.1693" fill="#0069B4"/>
<path d="M84.3269 79.179C84.7148 79.0169 85.1306 78.9327 85.5509 78.931C86.26 78.9272 86.9477 79.1728 87.4939 79.625V69.2249L87.1369 69.484C86.6658 69.7467 86.1364 69.8873 85.5969 69.8929C85.1278 69.891 84.6642 69.7922 84.2349 69.603C84.2349 69.603 84.1549 69.564 84.0439 69.519C83.9659 69.494 83.5119 69.287 83.3719 69.236C83.3449 69.236 83.1559 69.185 83.0889 69.166C82.8167 69.1048 82.5408 69.0611 82.2629 69.035C82.1689 69.035 82.0909 69.0229 82.0019 69.0229H81.9489C80.5753 69.1106 79.2866 69.7181 78.3448 70.7219C77.4031 71.7257 76.8789 73.0505 76.8789 74.4269C76.8789 75.8034 77.4031 77.1282 78.3448 78.132C79.2866 79.1358 80.5753 79.7433 81.9489 79.8309C82.6413 79.8321 83.3249 79.6769 83.9489 79.3769L84.3269 79.179ZM82.2319 77.429C81.515 77.3408 80.8609 76.9758 80.4095 76.4119C79.958 75.8479 79.745 75.1298 79.8159 74.4109C79.7461 73.6927 79.9598 72.9756 80.4114 72.4127C80.8629 71.8498 81.5166 71.4856 82.2329 71.3979C82.9532 71.4808 83.6122 71.8428 84.0686 72.4061C84.5249 72.9694 84.7423 73.6892 84.6739 74.4109C84.7437 75.1335 84.527 75.8546 84.0705 76.419C83.6139 76.9834 82.9541 77.3461 82.2329 77.429H82.2319Z" fill="#0069B4"/>
<path d="M41.654 73.624C41.6569 73.2119 41.8032 72.8137 42.0678 72.4978C42.3324 72.1819 42.6988 71.968 43.104 71.893C43.4766 71.8268 43.86 71.8581 44.217 71.984C44.5739 72.1098 44.8922 72.3258 45.141 72.611V69.102C44.8481 69.0507 44.5514 69.024 44.254 69.022C43.5708 69.0219 42.8969 69.1801 42.285 69.484L42.03 69.611C41.6307 69.7969 41.1955 69.8928 40.755 69.892C40.2144 69.8903 39.6838 69.7457 39.217 69.473L38.854 69.225V79.611H41.654V73.624Z" fill="#0069B4"/>
</svg>
