<svg width="214" height="88" viewBox="0 0 214 88" fill="none" xmlns="http://www.w3.org/2000/svg">
<g clip-path="url(#clip0_161_555)">
<path d="M35.5 0H0V43.5809H35.5V0Z" fill="#ECB334"/>
<path d="M71 0H35.5V43.5809H71V0Z" fill="#75B9F5"/>
<path d="M53.4905 21.8101H35.5895V43.6425H53.4905V21.8101Z" fill="#8DB730"/>
<path d="M35.5 43.5808H0V87.1617H35.5V43.5808Z" fill="#0096D6"/>
<path d="M35.5948 43.6201H17.6938V65.4525H35.5948V43.6201Z" fill="#DB6425"/>
<path d="M71 43.5361H35.5V87.117H71V43.5361Z" fill="#002B5C"/>
<path fill-rule="evenodd" clip-rule="evenodd" d="M36.4116 21.7095C31.8315 21.7095 29.4323 24.9922 29.4323 24.9922L28.806 23.2753C28.5991 22.7049 28.2356 22.2352 27.7099 22.2352H25.2605C24.7404 22.2352 24.2706 22.7049 24.2706 23.225V25.5234V46.4163V53.362C24.2706 54.0107 24.2706 54.665 24.2706 55.3137C24.2706 55.4311 24.2818 55.5542 24.3098 55.6716C24.4887 56.3427 25.1598 56.8068 25.8421 56.7453C26.6641 56.667 27.2178 56.1246 27.2569 55.3472C27.2681 55.0676 27.2513 54.7824 27.2681 54.5028C27.3072 53.9156 27.956 53.5521 28.5264 53.7982C28.9122 53.966 29.0632 54.2735 29.0632 54.6594C29.0632 55.9456 29.0688 57.2319 29.0576 58.5125C29.0576 59.0214 29.2534 59.4408 29.7008 59.7316C29.8797 59.8435 30.0978 59.905 30.2991 59.9889H30.8136C31.7587 59.7204 32.0999 59.0941 32.0551 58.2105C32.0216 57.5562 32.044 46.1926 32.044 46.1926L32.0272 46.1423V42.5856C32.6535 42.9491 34.5773 43.5754 36.35 43.5754C41.92 43.5754 46.7126 39.9796 46.7126 32.6424C46.7238 26.6531 42.2947 21.7095 36.4116 21.7095ZM35.3714 36.8591C32.9778 36.8591 31.2051 35.036 31.2051 32.6928C31.2051 30.2993 32.9778 28.4203 35.3714 28.4203C37.7649 28.4203 39.588 30.2937 39.588 32.6928C39.588 35.036 37.7649 36.8591 35.3714 36.8591Z" fill="white"/>
<path d="M88.5495 20.806V15.745H87.6346C87.4711 15.745 87.3231 15.6788 87.1947 15.5504C87.0662 15.4219 87 15.2623 87 15.0754V11.9453C87 11.7585 87.0584 11.5989 87.1752 11.4704C87.292 11.3419 87.4438 11.2757 87.6307 11.2757H88.5456V7.38264C88.5456 7.21913 88.6156 7.0673 88.7558 6.92714C88.8959 6.78699 89.0478 6.71692 89.2113 6.71692H92.972C93.1355 6.71692 93.2796 6.7831 93.4119 6.91157C93.5404 7.04005 93.6066 7.19966 93.6066 7.38653V11.2874H96.2072C96.651 11.2874 96.8729 11.5093 96.8729 11.9531V15.0832C96.8729 15.2701 96.8067 15.4297 96.6782 15.5581C96.5498 15.6866 96.3901 15.7528 96.2033 15.7528H93.6027V20.1442C93.6027 20.7048 93.918 20.989 94.5526 20.989C94.646 20.989 95.1015 20.9073 95.923 20.7438C96.3434 20.6737 96.6004 20.8255 96.6977 21.1992L97.4724 24.1152C97.5659 24.5356 97.414 24.8081 97.0169 24.9249C95.3546 25.4388 93.9375 25.6997 92.7657 25.6997C91.4303 25.6997 90.3948 25.2831 89.6551 24.4539C88.9193 23.613 88.5495 22.3983 88.5495 20.806Z" fill="white"/>
<path d="M104.624 6.22262C104.075 6.76376 103.413 7.03238 102.639 7.03238C101.864 7.03238 101.21 6.76376 100.673 6.22262C100.135 5.68537 99.8628 5.02744 99.8628 4.25271C99.8628 3.48188 100.131 2.82005 100.673 2.26723C101.21 1.7183 101.868 1.44189 102.639 1.44189C103.413 1.44189 104.075 1.7183 104.624 2.26723C105.173 2.82005 105.449 3.47799 105.449 4.25271C105.453 5.02744 105.177 5.68537 104.624 6.22262ZM100.073 24.672V11.9494C100.073 11.7625 100.139 11.6029 100.268 11.4744C100.396 11.3459 100.556 11.2798 100.743 11.2798H104.608C104.795 11.2798 104.955 11.3459 105.083 11.4744C105.212 11.6029 105.274 11.7625 105.274 11.9494V24.672C105.274 24.8355 105.204 24.9874 105.064 25.1275C104.924 25.2677 104.772 25.3377 104.608 25.3377H100.743C100.579 25.3377 100.427 25.2677 100.287 25.1275C100.147 24.9874 100.073 24.8355 100.073 24.672Z" fill="white"/>
<path d="M108.015 18.3108C108.015 16.2941 108.716 14.5617 110.125 13.1096C111.531 11.6575 113.251 10.9294 115.291 10.9294C117.121 10.9294 118.69 11.5562 120.002 12.8098C121.314 14.0634 121.968 15.6401 121.968 17.536C121.968 17.8397 121.945 18.1589 121.898 18.4859C121.851 18.883 121.629 19.0855 121.228 19.0855H112.796C112.866 19.6695 113.131 20.2028 113.586 20.6856C114.042 21.1644 114.68 21.4058 115.502 21.4058C116.393 21.4058 117.211 21.1255 117.962 20.561C118.312 20.2807 118.604 20.2807 118.842 20.561L120.598 22.671C120.878 23.0448 120.866 23.3874 120.563 23.691C119.227 25.0264 117.495 25.6921 115.361 25.6921C113.298 25.6921 111.562 24.9719 110.145 23.5314C108.724 22.091 108.015 20.3507 108.015 18.3108ZM113.251 16.3447H117.012C116.989 15.9009 116.79 15.5155 116.416 15.1846C116.043 14.8576 115.618 14.6941 115.151 14.6941C114.68 14.6941 114.267 14.8537 113.905 15.169C113.539 15.4844 113.321 15.8776 113.251 16.3447Z" fill="white"/>
<path d="M124.499 24.6721V11.9494C124.499 11.7626 124.565 11.6029 124.693 11.4745C124.822 11.346 124.981 11.2798 125.168 11.2798H126.819C127.122 11.2798 127.333 11.42 127.45 11.7003L128.01 13.1057C129.345 11.6535 130.996 10.9255 132.966 10.9255C135.053 10.9255 136.684 11.6224 137.867 13.0161C139.051 14.4099 139.643 16.1618 139.643 18.2679V24.6643C139.643 24.8278 139.576 24.9796 139.448 25.1198C139.32 25.2599 139.16 25.33 138.973 25.33H135.212C135.025 25.33 134.866 25.2638 134.737 25.1353C134.609 25.0069 134.543 24.8473 134.543 24.6604V18.0888C134.543 17.3414 134.332 16.7146 133.912 16.2085C133.492 15.7024 132.904 15.4532 132.156 15.4532C131.428 15.4532 130.801 15.6868 130.276 16.154C129.75 16.625 129.486 17.209 129.486 17.9098V24.6565C129.486 25.1003 129.275 25.3261 128.855 25.3261H125.164C125.001 25.3261 124.849 25.256 124.709 25.1159C124.569 24.9874 124.499 24.8356 124.499 24.6721Z" fill="white"/>
<path d="M142.033 18.3106C142.033 15.9436 142.698 14.1217 144.038 12.8447C145.373 11.5678 147.035 10.9293 149.029 10.9293C150.2 10.9293 151.174 11.1512 151.945 11.5989V1.40681C151.945 1.2433 152.007 1.09147 152.139 0.951319C152.268 0.811168 152.427 0.741089 152.614 0.741089H156.515C156.679 0.741089 156.83 0.811168 156.971 0.951319C157.111 1.09147 157.181 1.2433 157.181 1.40681V24.672C157.181 24.8355 157.111 24.9873 156.971 25.1275C156.83 25.2676 156.679 25.3377 156.515 25.3377H154.864C154.537 25.3377 154.288 25.1041 154.125 24.633L153.704 23.4729C153.587 23.6364 153.412 23.8427 153.179 24.088C152.945 24.3333 152.42 24.6603 151.598 25.073C150.777 25.4817 149.912 25.6881 148.997 25.6881C147.031 25.6881 145.377 24.9678 144.042 23.5274C142.698 22.0908 142.033 20.3506 142.033 18.3106ZM146.848 18.2756C146.848 19.097 147.125 19.7822 147.674 20.3312C148.223 20.8801 148.896 21.1565 149.694 21.1565C150.492 21.1565 151.158 20.8801 151.699 20.3312C152.237 19.7822 152.509 19.097 152.509 18.2756C152.509 17.4814 152.24 16.8118 151.699 16.2746C151.158 15.7373 150.492 15.4648 149.694 15.4648C148.896 15.4648 148.223 15.7334 147.674 16.2746C147.121 16.8118 146.848 17.4814 146.848 18.2756Z" fill="white"/>
<path d="M161.397 24.4073C160.482 23.5508 160.027 22.4335 160.027 21.0515C160.027 19.6694 160.494 18.5404 161.432 17.6606C162.37 16.7807 163.624 16.3408 165.193 16.3408C165.66 16.3408 166.12 16.3875 166.563 16.481C167.007 16.5744 167.35 16.6678 167.583 16.7613L167.899 16.9014C167.899 16.1501 167.782 15.6167 167.548 15.3014C167.315 14.986 166.797 14.8264 166.003 14.8264C164.808 14.8264 163.636 15.0016 162.487 15.352C162.02 15.5155 161.736 15.2702 161.642 14.6123L161.327 12.3971C161.234 11.9066 161.409 11.5873 161.857 11.4472C162.09 11.3771 162.725 11.272 163.753 11.1319C164.784 10.9917 165.707 10.9216 166.528 10.9216C168.685 10.9216 170.211 11.3927 171.114 12.327C172.018 13.2653 172.469 14.7875 172.469 16.8936V24.6604C172.469 24.8239 172.403 24.9757 172.275 25.1159C172.146 25.256 171.986 25.3261 171.8 25.3261H170.254C169.974 25.3261 169.763 25.1743 169.623 24.8706L169.133 23.9207C167.844 25.0925 166.427 25.6765 164.882 25.6765C163.468 25.692 162.308 25.2638 161.397 24.4073ZM164.593 20.7011C164.593 21.1215 164.741 21.4875 165.033 21.7912C165.325 22.0948 165.684 22.2466 166.104 22.2466C166.524 22.2466 166.886 22.0948 167.194 21.7912C167.498 21.4875 167.65 21.1215 167.65 20.7011C167.626 20.304 167.467 19.9575 167.175 19.6655C166.883 19.3735 166.524 19.2256 166.104 19.2256C165.684 19.2256 165.325 19.3735 165.033 19.6655C164.737 19.9575 164.593 20.304 164.593 20.7011Z" fill="white"/>
<path fill-rule="evenodd" clip-rule="evenodd" d="M95.5337 39.156C92.3102 39.156 90.6284 41.4646 90.6284 41.4646L90.1884 40.2578C90.0405 39.8529 89.7875 39.5259 89.4176 39.5259H87.6969C87.3309 39.5259 87 39.8568 87 40.2227V41.8384V56.5309V61.4129C87 61.8722 87 62.3277 87 62.7871C87 62.8689 87.0078 62.9584 87.0273 63.0402C87.1518 63.5112 87.6229 63.8382 88.1056 63.7954C88.6857 63.7409 89.075 63.3594 89.0984 62.8105C89.1062 62.6119 89.0945 62.4134 89.1062 62.2187C89.1334 61.8061 89.5928 61.553 89.9899 61.7243C90.2624 61.8411 90.3675 62.0591 90.3675 62.3277C90.3675 63.2309 90.3714 64.1341 90.3675 65.0373C90.3675 65.3955 90.5038 65.6914 90.8191 65.8938C90.9437 65.9717 91.0994 66.0184 91.2396 66.0768H91.6016C92.2674 65.886 92.5048 65.45 92.4737 64.8271C92.4503 64.3677 92.4659 56.3752 92.4659 56.3752L92.4542 56.3401V53.8408C92.8942 54.0977 94.2489 54.5376 95.4947 54.5376C99.4151 54.5376 102.783 52.011 102.783 46.8488C102.783 42.6325 99.672 39.156 95.5337 39.156ZM94.8018 49.8114C93.1161 49.8114 91.8703 48.5306 91.8703 46.8838C91.8703 45.1981 93.1161 43.8822 94.8018 43.8822C96.4875 43.8822 97.7683 45.202 97.7683 46.8838C97.7683 48.5306 96.4836 49.8114 94.8018 49.8114Z" fill="white"/>
<path d="M109.868 34.4804C109.319 35.0216 108.657 35.2902 107.882 35.2902C107.108 35.2902 106.454 35.0216 105.916 34.4804C105.379 33.9432 105.107 33.2853 105.107 32.5105C105.107 31.7397 105.375 31.0779 105.916 30.525C106.454 29.9761 107.112 29.6997 107.882 29.6997C108.657 29.6997 109.319 29.9761 109.868 30.525C110.417 31.0779 110.693 31.7358 110.693 32.5105C110.697 33.2853 110.421 33.9432 109.868 34.4804ZM105.321 52.9298V40.2072C105.321 40.0203 105.387 39.8607 105.515 39.7322C105.644 39.6037 105.804 39.5376 105.99 39.5376H109.856C110.043 39.5376 110.203 39.6037 110.331 39.7322C110.46 39.8607 110.526 40.0203 110.526 40.2072V52.9298C110.526 53.0933 110.456 53.2452 110.316 53.3853C110.176 53.5255 110.024 53.5955 109.86 53.5955H105.994C105.831 53.5955 105.679 53.5255 105.539 53.3853C105.391 53.2452 105.321 53.0933 105.321 52.9298Z" fill="white"/>
<path d="M114.314 52.9299V40.2072C114.314 40.0204 114.38 39.8608 114.509 39.7323C114.637 39.6038 114.797 39.5376 114.984 39.5376H116.634C116.938 39.5376 117.148 39.6778 117.265 39.9581L117.826 41.3635C119.161 39.9114 120.812 39.1833 122.781 39.1833C124.868 39.1833 126.499 39.8802 127.683 41.2739C128.866 42.6677 129.458 44.4196 129.458 46.5257V52.9221C129.458 53.0856 129.392 53.2374 129.267 53.3776C129.139 53.5177 128.979 53.5878 128.792 53.5878H125.032C124.845 53.5878 124.685 53.5216 124.557 53.3932C124.428 53.2647 124.362 53.1051 124.362 52.9182V46.3466C124.362 45.5992 124.152 44.9724 123.731 44.4663C123.311 43.9602 122.723 43.711 121.976 43.711C121.248 43.711 120.621 43.9446 120.095 44.4118C119.57 44.8828 119.305 45.4668 119.305 46.1676V52.9143C119.305 53.3581 119.095 53.5839 118.674 53.5839H114.984C114.82 53.5839 114.668 53.5138 114.528 53.3737C114.384 53.2452 114.314 53.0934 114.314 52.9299Z" fill="white"/>
<path d="M133.328 49.0639V44.0028H132.413C132.249 44.0028 132.101 43.9366 131.973 43.8082C131.845 43.6797 131.778 43.5201 131.778 43.3332V40.2032C131.778 40.0163 131.837 39.8567 131.954 39.7282C132.07 39.5997 132.222 39.5335 132.409 39.5335H133.324V35.6404C133.324 35.4769 133.394 35.3251 133.534 35.185C133.674 35.0448 133.826 34.9747 133.99 34.9747H137.75C137.914 34.9747 138.062 35.0409 138.19 35.1694C138.319 35.2979 138.381 35.4575 138.381 35.6443V39.5452H140.982C141.425 39.5452 141.651 39.7671 141.651 40.2109V43.341C141.651 43.5279 141.585 43.6875 141.457 43.816C141.328 43.9444 141.168 44.0106 140.982 44.0106H138.381V48.402C138.381 48.9626 138.696 49.2468 139.331 49.2468C139.424 49.2468 139.88 49.1651 140.701 49.0016C141.122 48.9315 141.379 49.0833 141.472 49.4571L142.247 52.373C142.34 52.7934 142.188 53.066 141.791 53.1827C140.129 53.6966 138.712 53.9575 137.54 53.9575C136.205 53.9575 135.169 53.5409 134.43 52.7117C133.698 51.8708 133.328 50.6561 133.328 49.0639Z" fill="white"/>
<path d="M144.536 46.5685V40.2072C144.536 40.0203 144.598 39.8607 144.731 39.7323C144.859 39.6038 145.019 39.5376 145.205 39.5376H148.966C149.153 39.5376 149.313 39.6038 149.441 39.7323C149.57 39.8607 149.632 40.0203 149.632 40.2072V46.7087C149.632 47.4601 149.83 48.0985 150.231 48.6241C150.629 49.1497 151.181 49.4144 151.882 49.4144C152.536 49.4144 153.054 49.1613 153.428 48.6591C153.801 48.1569 153.988 47.5768 153.988 46.9189V40.2072C153.988 39.7634 154.234 39.5415 154.728 39.5415H158.314C158.5 39.5415 158.66 39.6077 158.789 39.7361C158.917 39.8646 158.979 40.0242 158.979 40.2111V52.9299C158.979 53.0934 158.909 53.2452 158.769 53.3854C158.629 53.5255 158.477 53.5956 158.314 53.5956H156.663C156.359 53.5956 156.137 53.4321 155.993 53.105L155.468 51.8048C154.977 52.2953 154.611 52.6379 154.378 52.8247C154.144 53.0116 153.681 53.2452 152.988 53.5255C152.299 53.8058 151.54 53.946 150.722 53.946C148.733 53.946 147.203 53.2491 146.136 51.8554C145.069 50.4655 144.536 48.7019 144.536 46.5685Z" fill="white"/>
<path d="M162.775 52.9299V40.2072C162.775 40.0204 162.837 39.8608 162.97 39.7323C163.098 39.6038 163.258 39.5376 163.445 39.5376H165.095C165.376 39.5376 165.586 39.6778 165.726 39.9581L166.357 41.5036C167.435 39.9581 168.712 39.1833 170.188 39.1833C170.822 39.1833 171.383 39.2534 171.873 39.3936C172.364 39.5337 172.718 39.7206 172.928 39.9542C173.139 40.1878 173.162 40.433 172.998 40.6939L171.278 43.5047C171.091 43.8317 170.834 43.9368 170.503 43.82C170.223 43.7032 169.942 43.6448 169.658 43.6448C169.121 43.6448 168.673 43.8317 168.323 44.2054C167.972 44.5792 167.797 45.0619 167.797 45.6459V52.9182C167.797 53.362 167.54 53.5878 167.023 53.5878H163.437C163.273 53.5878 163.122 53.5177 162.981 53.3776C162.845 53.2452 162.775 53.0934 162.775 52.9299Z" fill="white"/>
<path d="M173.703 46.5686C173.703 44.5519 174.404 42.8195 175.813 41.3674C177.219 39.9153 178.939 39.1873 180.979 39.1873C182.805 39.1873 184.378 39.814 185.69 41.0676C187.002 42.3212 187.656 43.8979 187.656 45.7938C187.656 46.0975 187.633 46.4167 187.586 46.7438C187.539 47.1409 187.317 47.3433 186.916 47.3433H178.484C178.554 47.9273 178.819 48.4606 179.274 48.9434C179.73 49.4222 180.368 49.6636 181.19 49.6636C182.081 49.6636 182.899 49.3833 183.65 48.8188C184 48.5385 184.292 48.5385 184.53 48.8188L186.286 50.9288C186.566 51.3026 186.554 51.6452 186.251 51.9488C184.915 53.2842 183.183 53.9499 181.049 53.9499C178.986 53.9499 177.246 53.2297 175.829 51.7892C174.412 50.3488 173.703 48.6086 173.703 46.5686ZM178.939 44.6026H182.7C182.677 44.1587 182.478 43.7733 182.104 43.4424C181.731 43.1154 181.306 42.9519 180.839 42.9519C180.372 42.9519 179.955 43.1115 179.593 43.4268C179.224 43.7422 179.009 44.1354 178.939 44.6026Z" fill="white"/>
<path d="M190.183 52.9299V40.2072C190.183 40.0204 190.249 39.8608 190.377 39.7323C190.506 39.6038 190.665 39.5376 190.852 39.5376H192.503C192.783 39.5376 192.993 39.6778 193.134 39.9581L193.764 41.5036C194.843 39.9581 196.12 39.1833 197.595 39.1833C198.226 39.1833 198.79 39.2534 199.281 39.3936C199.771 39.5337 200.126 39.7206 200.336 39.9542C200.546 40.1878 200.569 40.433 200.406 40.6939L198.685 43.5047C198.498 43.8317 198.241 43.9368 197.91 43.82C197.63 43.7032 197.35 43.6448 197.066 43.6448C196.528 43.6448 196.081 43.8317 195.73 44.2054C195.38 44.5792 195.205 45.0619 195.205 45.6459V52.9182C195.205 53.362 194.948 53.5878 194.43 53.5878H190.844C190.681 53.5878 190.529 53.5177 190.389 53.3776C190.253 53.2452 190.183 53.0934 190.183 52.9299Z" fill="white"/>
<path d="M202.73 52.6651C201.815 51.8087 201.36 50.6913 201.36 49.3093C201.36 47.9272 201.827 46.7982 202.765 45.9184C203.703 45.0386 204.957 44.5986 206.526 44.5986C206.993 44.5986 207.452 44.6454 207.896 44.7388C208.34 44.8322 208.679 44.9257 208.916 45.0191L209.231 45.1592C209.231 44.4079 209.115 43.8745 208.881 43.5592C208.647 43.2438 208.13 43.0842 207.336 43.0842C206.14 43.0842 204.969 43.2594 203.82 43.6098C203.353 43.7733 203.069 43.528 202.975 42.8701L202.66 40.6549C202.566 40.1644 202.742 39.8452 203.189 39.705C203.423 39.6349 204.054 39.5298 205.085 39.3897C206.117 39.2495 207.044 39.1794 207.861 39.1794C210.018 39.1794 211.544 39.6505 212.447 40.5849C213.35 41.5231 213.798 43.0453 213.798 45.1515V52.9182C213.798 53.0817 213.736 53.2335 213.607 53.3737C213.479 53.5138 213.319 53.5839 213.132 53.5839H211.583C211.303 53.5839 211.092 53.4321 210.952 53.1284L210.462 52.1785C209.173 53.3503 207.756 53.9343 206.21 53.9343C204.801 53.9499 203.641 53.5216 202.73 52.6651ZM205.926 48.9589C205.926 49.3794 206.074 49.7453 206.366 50.049C206.658 50.3526 207.016 50.5045 207.437 50.5045C207.857 50.5045 208.223 50.3526 208.527 50.049C208.83 49.7453 208.982 49.3794 208.982 48.9589C208.959 48.5618 208.799 48.2153 208.507 47.9233C208.215 47.6314 207.857 47.4834 207.437 47.4834C207.016 47.4834 206.658 47.6314 206.366 47.9233C206.074 48.2153 205.926 48.5618 205.926 48.9589Z" fill="white"/>
<path fill-rule="evenodd" clip-rule="evenodd" d="M213.798 70.6764V85.8322C211.77 84.5825 209.987 85.0691 208.083 85.8945C205.634 86.9534 203.287 86.3539 201.282 84.6409C197.525 81.4369 197.478 75.243 201.165 71.9844C203.189 70.1975 205.56 69.6525 208.067 70.6335C209.975 71.381 211.781 71.9144 213.798 70.6764ZM209.92 78.229C209.979 78.2017 210.041 78.1706 210.099 78.1394C209.722 77.1467 209.492 76.0644 208.932 75.1885C207.549 73.0317 204.906 73.0745 203.45 75.1846C202.671 76.3175 202.45 77.5944 202.57 78.9414C202.761 81.0515 204.24 82.7839 205.988 82.9357C207.686 83.0837 209.255 81.6627 209.753 79.4942C209.85 79.0777 209.866 78.6494 209.92 78.229Z" fill="white"/>
<path fill-rule="evenodd" clip-rule="evenodd" d="M128.566 70.2169C133.117 70.1974 136.676 73.7129 136.683 78.2405C136.695 82.7137 133.063 86.3771 128.613 86.3888C124.167 86.3966 120.473 82.7293 120.465 78.2951C120.457 73.8024 124.035 70.2324 128.566 70.2169ZM132.592 78.2873C132.603 75.7062 130.929 73.6817 128.738 73.6194C126.628 73.561 124.942 75.2039 124.595 77.6644C124.268 79.9535 125.736 82.3361 127.772 82.8227C130.303 83.4223 132.58 81.2772 132.592 78.2873Z" fill="white"/>
<path fill-rule="evenodd" clip-rule="evenodd" d="M164.048 70.2168C168.568 70.2246 172.154 73.8024 172.142 78.295C172.13 82.7293 168.432 86.4044 163.99 86.3888C159.54 86.3732 155.908 82.7098 155.919 78.2405C155.931 73.7245 159.501 70.2013 164.048 70.2168ZM168.07 78.2561C168.066 75.7879 166.372 73.7245 164.255 73.6233C162.203 73.5221 160.412 75.1222 160.081 77.349C159.707 79.899 161.039 82.2893 163.126 82.811C165.683 83.4456 168.07 81.246 168.07 78.2561Z" fill="white"/>
<path fill-rule="evenodd" clip-rule="evenodd" d="M188.991 85.984C188.991 83.0019 189.01 80.2222 188.987 77.4426C188.972 75.8542 188.395 74.5383 186.83 73.9115C184.549 72.9966 181.972 74.7602 181.925 77.2752C181.882 79.7122 181.917 82.1493 181.909 84.5903C181.909 85.0069 181.878 85.4195 181.855 85.9139H178.133V70.7425C180.123 71.9183 181.952 71.3771 183.856 70.6374C188.057 69.014 192.479 71.7664 192.791 76.2513C192.989 79.1828 192.9 82.1299 192.872 85.073C192.872 85.3767 192.436 85.9139 192.164 85.9412C191.179 86.0502 190.171 85.984 188.991 85.984Z" fill="white"/>
<path fill-rule="evenodd" clip-rule="evenodd" d="M114.415 81.3239C115.182 81.9118 115.906 82.4685 116.622 83.0174C115.236 85.5324 111.822 86.8638 108.731 86.1514C105.582 85.4272 102.973 82.3089 102.798 79.0737C102.584 75.056 104.62 71.7819 108.073 70.5829C111.199 69.4967 114.684 70.614 116.712 73.456C115.972 74.0283 115.225 74.6044 114.489 75.1767C112.313 73.2341 109.704 72.8915 107.913 75.0677C106.321 77.0065 106.559 80.3 108.361 81.9507C110 83.4418 112.375 83.2432 114.415 81.3239Z" fill="white"/>
<path fill-rule="evenodd" clip-rule="evenodd" d="M142.399 70.6841C144.427 71.7936 146.101 71.4861 147.868 70.7114C148.904 70.2598 150.146 70.287 151.399 70.0768V74.8848C150.714 74.7018 150.01 74.3942 149.289 74.3436C147.495 74.2229 146.369 75.3247 146.35 77.1389C146.327 79.6149 146.342 82.087 146.342 84.563V85.9801C145.167 85.9801 144.088 86.0618 143.037 85.9217C142.78 85.8906 142.43 85.1431 142.422 84.7226C142.375 80.74 142.395 76.7612 142.395 72.7747V70.6841H142.399Z" fill="white"/>
</g>
<defs>
<clipPath id="clip0_161_555">
<rect width="213.798" height="87.1618" fill="white"/>
</clipPath>
</defs>
</svg>
