<?xml version="1.0" encoding="utf-8"?>
<!-- Generator: Adobe Illustrator 27.2.0, SVG Export Plug-In . SVG Version: 6.00 Build 0)  -->
<svg version="1.1" id="Capa_1" xmlns="http://www.w3.org/2000/svg" xmlns:xlink="http://www.w3.org/1999/xlink" x="0px" y="0px"
	 viewBox="0 0 37.5 37.5" style="enable-background:new 0 0 37.5 37.5;" xml:space="preserve">
<style type="text/css">
	.st0{fill-rule:evenodd;clip-rule:evenodd;fill:#FFFFFF;}
	.st1{fill-rule:evenodd;clip-rule:evenodd;fill:#40C351;}
</style>
<path class="st0" d="M32,5.5C28.5,2,23.8,0,18.7,0C8.4,0,0,8.4,0,18.7c0,3.5,1,7,2.9,10l0.4,0.7l-1.9,6.9l7.1-1.9l0.7,0.4
	c2.9,1.7,6.2,2.6,9.5,2.6h0c10.3,0,18.7-8.4,18.7-18.7C37.5,13.7,35.5,9,32,5.5z"/>
<path class="st1" d="M13.1,9.3c-0.4-0.9-0.9-1-1.3-1c-0.3,0-0.7,0-1.1,0c-0.4,0-1,0.1-1.5,0.7c-0.5,0.6-2,1.9-2,4.7
	c0,2.8,2,5.5,2.3,5.8c0.3,0.4,3.9,6.2,9.6,8.5c4.8,1.9,5.7,1.5,6.8,1.4c1-0.1,3.3-1.4,3.8-2.7c0.5-1.3,0.5-2.4,0.3-2.7
	c-0.1-0.2-0.5-0.4-1.1-0.7c-0.6-0.3-3.3-1.6-3.8-1.8c-0.5-0.2-0.9-0.3-1.3,0.3c-0.4,0.6-1.5,1.8-1.8,2.2c-0.3,0.4-0.7,0.4-1.2,0.1
	c-0.6-0.3-2.4-0.9-4.5-2.8c-1.7-1.5-2.8-3.3-3.1-3.9c-0.3-0.6,0-0.9,0.2-1.1c0.3-0.3,0.6-0.7,0.8-1c0.3-0.3,0.4-0.6,0.6-0.9
	c0.2-0.4,0.1-0.7,0-1C14.7,13.2,13.6,10.4,13.1,9.3z"/>
</svg>
